<svg version="1.2" xmlns="http://www.w3.org/2000/svg" viewBox="0 0 1544 1457" width="1544" height="1457">
	<title>Telkom_Indonesia_2013-svg</title>
	<style>
		.s0 { fill: #5c5c5c } 
		.s1 { fill: #d51100 } 
		.s2 { fill: #ffffff } 
	</style>
	<g id="Layer">
		<g id="svg_3">
			<g id="svg_1">
				<path id="path3115-0" fill-rule="evenodd" class="s0" d="m487.3 1456.2c-269.3 0-486.9-209.9-486.9-469.7 0-259.7 217.6-469.7 486.9-469.7 269.2 0 486.9 210 486.9 469.7 0 259.8-217.7 469.7-486.9 469.7zm289.3-489.5c0-165.6-140.7-299.5-314.7-299.5-174.1 0-314.7 133.9-314.7 299.5 0 165.7 140.6 299.6 314.7 299.6 174 0 314.7-133.9 314.7-299.6z"/>
				<path id="path3912-9" fill-rule="evenodd" class="s1" d="m813.2 0.8l-0.1 0.1c2.2 0 4.6 0.2 7 0.5 11.7 1.8 25.5 7 32.3 16.6 9.7 13.6 11.5 29.4 13 45.9 2.8 30-4.2 65.4-7.8 97.8-7.8 68.9-22.2 138.4-30.2 206-2.7 22.2-7 56.7 13.9 65.8 30.1 13.2 61-28.7 83.9-52.2 67.2-68.7 124.4-133.6 195.2-207.5 20.8-21.7 57.9-48.5 85.5-60.7 18.7-8.3 40.7-17.1 60.7-12.4 11 2.6 20.7 11.7 25.9 21.8 9.2 17.5 8.6 39.4 5.2 58.9-4.8 27-21.5 50.8-34.8 74.8-27 48.9-61.7 93-91.2 140.5-26.3 42.3-57.5 82.6-76.7 128.6-9.4 22.4-33.4 51.5-18.1 70.3 15.7 19.4 50.5 3.3 74.6-3.3 40.1-10.9 73-39.6 110.2-58 50.5-24.7 100.4-51.4 153.5-70 19.2-6.8 36.3-11.6 56.8-11.8 19.7-0.1 37.4-1.4 53.7 9.7 10.1 6.8 16.7 15.9 17.8 28.1 1.7 18.2-9.9 42.4-19.6 57.9-13.6 21.8-31.2 35.7-49.5 53.8-57.5 56.7-118.4 102.1-181.9 152.2-54.9 43.4-118.1 76.7-168.2 125.6-24.8 24.2-66.8 53.6-59.8 87.6 7.4 35.6 58.6 42.5 93 46.5 42.4 4.8 76.5-0.3 116.3 5.4 26.8 3.8 60.9 5.6 84 19.6 22.9 13.9 50 33.9 49.2 60.7-0.8 29.5-35 50.3-61 64.3-77 41.6-168.2 47.4-255.5 52.3-56.3 3.1-109.4-2.2-164.6-13.3-0.9-0.2-4.9-1-5.8-1.2 5.8-10.8 10.8-21.1 15.7-32.3 12.3-28.1 21.9-57.6 28.4-88.2 3.3-15.3 5.9-31 7.6-46.8 1.6-15.8 2.4-31.8 2.4-48 0-16.2-0.8-32.2-2.4-48-1.7-15.8-4.3-31.3-7.6-46.5-6.5-30.6-16.1-60.1-28.4-88.2-12.3-28.1-27.2-55.1-44.7-80-17.5-25-37.5-48.2-59.5-69.5-22-21.2-46.3-40.5-72.2-57.4-25.9-16.8-53.3-31.3-82.4-43.1-29.2-11.9-59.9-21-91.6-27.2-15.8-3.1-31.9-5.7-48.3-7.3-16.4-1.6-33-2.4-49.8-2.4-16.8 0-33.5 0.8-49.9 2.4-16.3 1.6-32.4 4.2-48.3 7.3-27.4 5.4-81.4 23.5-81.4 23.5 0 0-1-26.1-1.1-39.2-0.8-122.8 11.6-207.5 49.6-283.2 16.2-32.4 43.6-90.3 81.5-88.2 24.8 1.4 40.9 41.2 45.6 59.2 10.1 38.1 5 78.5 9.1 117.7 2.1 20.1 1.7 57.4 8.5 76.4 5.3 15 10.4 22.3 25.6 26.6 14.8 4.2 26-5.2 37.2-15.7 17.9-16.7 29.8-41.5 40.2-63.7 42-90.3 83.7-181 127.7-275.1 8.7-18.4 23.2-37.1 39.9-48.6 13.7-9.4 26.2-15.9 41.7-15.4zm-351.3 666.4c21.8 0 43 2.1 63.5 6.1 20.5 3.9 40.3 9.9 59.2 17.5 18.8 7.5 36.7 16.7 53.4 27.4 16.8 10.8 32.3 23.3 46.6 36.9 14.2 13.5 27 28.1 38.3 44.1 11.3 15.9 21 33.1 29 51 8 17.9 14.2 36.7 18.4 56.2 4.2 19.5 6.4 39.7 6.4 60.4 0 20.6-2.2 40.8-6.4 60.3-4.2 19.5-10.4 38.3-18.4 56.2-8 17.9-17.7 35.1-29 51-1.2 1.8-2.3 3.5-3.6 5.2-0.5-0.3-1.6-0.9-2.1-1.1-89.2-46.4-172.5-107-237.1-183.1-64.3-75.7-106.3-169.8-141.4-262.1-0.2-0.6-0.5-1.4-0.7-2 0.4-0.2 0.6-0.9 1-1 18.8-7.6 39-13 59.5-16.9 20.5-4 41.7-6.1 63.4-6.1z"/>
				<path id="path3910-4" class="s2" d="m920.1 1201.7c-62.3-12.7-134.6-31.8-201-62.3 1.3-1.7 2.5-3.3 3.8-5.1 11.3-15.9 21-33.1 28.9-51 8-17.9 14.3-36.7 18.5-56.2 4.2-19.5 6.3-39.7 6.3-60.4 0-20.7-2.1-40.9-6.3-60.4-4.2-19.5-10.5-38.2-18.5-56.1-7.9-18-17.6-35.1-28.9-51.1-11.4-15.9-24.2-30.5-38.4-44.1-14.2-13.5-29.8-26-46.5-36.8-16.8-10.8-34.7-19.9-53.5-27.5-18.8-7.6-38.7-13.5-59.2-17.5-20.5-4-41.7-6-63.4-6-21.8 0-43 2-63.5 6-20.4 4-40.3 9.9-59.2 17.5-0.4 0.2-0.8 0.3-1.2 0.5-16.5-44.2-27.2-103.2-30.3-141.5 25.5-9.6 54-17.8 81.4-23.2 15.8-3.2 31.9-5.7 48.3-7.3 16.4-1.6 33-2.4 49.9-2.4 16.8 0 33.4 0.8 49.8 2.4 16.4 1.6 32.5 4.1 48.3 7.3 31.7 6.2 62.4 15.3 91.5 27.1 29.2 11.9 56.6 26.3 82.5 43.2 25.9 16.9 50.2 36.1 72.2 57.4 22 21.2 42 44.5 59.5 69.4 17.5 25 32.4 52 44.7 80.1 12.3 28 21.9 57.5 28.4 88.1 3.2 15.3 5.9 30.7 7.5 46.5 1.7 15.8 2.5 31.8 2.5 48 0 16.3-0.8 32.3-2.5 48-1.6 15.8-4.3 31.6-7.5 46.9-6.5 30.5-16.1 60-28.4 88.1-4.9 11.3-9.9 21.6-15.7 32.4z"/>
			</g>
		</g>
	</g>
</svg>